<?xml version="1.0" encoding="UTF-8" standalone="no"?>
<!-- Created with Inkscape (http://www.inkscape.org/) -->

<svg
   width="64"
   height="64"
   viewBox="0 0 64 64.000003"
   version="1.1"
   id="svg37"
   inkscape:version="1.3.2 (091e20ef0f, 2023-11-25)"
   sodipodi:docname="angelfish.svg"
   xmlns:inkscape="http://www.inkscape.org/namespaces/inkscape"
   xmlns:sodipodi="http://sodipodi.sourceforge.net/DTD/sodipodi-0.dtd"
   xmlns:xlink="http://www.w3.org/1999/xlink"
   xmlns="http://www.w3.org/2000/svg"
   xmlns:svg="http://www.w3.org/2000/svg"
   xmlns:rdf="http://www.w3.org/1999/02/22-rdf-syntax-ns#"
   xmlns:cc="http://creativecommons.org/ns#"
   xmlns:dc="http://purl.org/dc/elements/1.1/">
  <defs
     id="defs31">
    <radialGradient
       xlink:href="#b"
       id="d"
       cx="15.747"
       cy="10.476"
       r="22.448"
       fx="15.747"
       fy="10.476"
       gradientTransform="matrix(2.5174,0,0,1.64331,-24.877,-2.496)"
       gradientUnits="userSpaceOnUse" />
    <linearGradient
       id="b">
      <stop
         offset="0"
         style="stop-color:#3daee9;stop-opacity:1"
         id="stop4" />
      <stop
         offset="1"
         style="stop-color:#16a085;stop-opacity:1"
         id="stop5" />
    </linearGradient>
    <radialGradient
       xlink:href="#c"
       id="e"
       cx="-1.804"
       cy="-16.624001"
       r="20.127001"
       fx="-1.804"
       fy="-16.624001"
       gradientTransform="matrix(3.943,0,0,2.56297,5.31,41.22)"
       gradientUnits="userSpaceOnUse" />
    <linearGradient
       id="c">
      <stop
         offset="0"
         style="stop-color:#000;stop-opacity:1"
         id="stop1" />
      <stop
         offset=".429"
         style="stop-color:#3d1d4a;stop-opacity:.63636363"
         id="stop2" />
      <stop
         offset="1"
         style="stop-color:#8e44ad;stop-opacity:.27922079"
         id="stop3" />
    </linearGradient>
    <linearGradient
       xlink:href="#a"
       id="f"
       x1="34"
       x2="48.764999"
       y1="19.007999"
       y2="33.772999"
       gradientTransform="matrix(0.65572,0,0,0.65572,5.545,10.561)"
       gradientUnits="userSpaceOnUse" />
    <linearGradient
       id="a"
       x1="34"
       x2="44"
       y1="19.007999"
       y2="29.007999"
       gradientUnits="userSpaceOnUse">
      <stop
         offset="0"
         stop-color="#292c2f"
         id="stop12" />
      <stop
         offset="1"
         stop-opacity="0"
         id="stop13" />
    </linearGradient>
    <linearGradient
       id="g"
       x1="4"
       x2="4"
       y1="44"
       y2="4"
       gradientTransform="matrix(0.65572,0,0,0.65572,5.545,10.561)"
       gradientUnits="userSpaceOnUse">
      <stop
         offset="0"
         stop-color="#dfe646"
         style="stop-color:#fdbc4b;stop-opacity:1"
         id="stop8" />
      <stop
         offset="1"
         stop-color="#f5f9ab"
         style="stop-color:#fde44b;stop-opacity:1"
         id="stop9" />
    </linearGradient>
    <linearGradient
       xlink:href="#a"
       id="h"
       x1="6.7389998"
       x2="10.48"
       y1="27.437"
       y2="31.492001"
       gradientUnits="userSpaceOnUse" />
  </defs>
  <sodipodi:namedview
     id="base"
     pagecolor="#ffffff"
     bordercolor="#000000"
     borderopacity="0.30"
     inkscape:pageopacity="0.0"
     inkscape:pageshadow="2"
     inkscape:zoom="2.7616053"
     inkscape:cx="61.377345"
     inkscape:cy="57.575208"
     inkscape:document-units="px"
     inkscape:current-layer="layer1"
     inkscape:showpageshadow="2"
     inkscape:pagecheckerboard="0"
     inkscape:deskcolor="#d1d1d1"
     showgrid="true"
     inkscape:window-width="1525"
     inkscape:window-height="819"
     inkscape:window-x="276"
     inkscape:window-y="84"
     inkscape:window-maximized="0">
    <inkscape:grid
       type="xygrid"
       id="grid39"
       originx="-380"
       originy="-199.99999"
       spacingy="1"
       spacingx="1"
       units="px"
       visible="true" />
  </sodipodi:namedview>
  <metadata
     id="metadata34">
    <rdf:RDF>
      <cc:Work
         rdf:about="">
        <dc:format>image/svg+xml</dc:format>
        <dc:type
           rdf:resource="http://purl.org/dc/dcmitype/StillImage" />
      </cc:Work>
    </rdf:RDF>
  </metadata>
  <g
     inkscape:label="Layer 1"
     inkscape:groupmode="layer"
     id="layer1"
     transform="translate(-380,-199.99998)">
    <g
       id="g24"
       transform="matrix(1.3357865,0,0,1.3357865,379.68832,197.46055)"
       style="stroke-width:0.748623">
      <path
         d="m 34.987,11.718 c -2.777,0.066 -8.784,1.001 -13.602,2.068 l -0.054,0.012 c -0.904,0.2 -1.805,0.415 -2.702,0.645 -0.117,0.03 -0.233,0.064 -0.35,0.095 -0.792,0.214 -1.586,0.448 -2.357,0.733 -0.385,0.14 -0.764,0.297 -1.136,0.468 -0.371,0.172 -0.733,0.361 -1.084,0.57 -0.332,0.2 -0.666,0.407 -1,0.622 -0.649,0.418 -1.296,0.868 -1.922,1.342 -0.934,0.698 -1.81,1.47 -2.62,2.308 -0.254,0.268 -0.494,0.54 -0.72,0.817 l -0.012,0.011 -0.002,0.002 c -0.08,0.098 -0.153,0.197 -0.228,0.295 -0.14,0.184 -0.278,0.37 -0.404,0.557 -0.03,0.044 -0.067,0.088 -0.096,0.133 -1.53,2.35 -2.55,5.109 -3.057,6.383 -0.506,1.275 -0.498,1.06 -0.797,1.117 -0.298,0.057 -0.9,0.387 -1.054,1.281 -0.153,0.895 0.147,2.345 1.2,3.262 1.056,0.916 2.861,1.292 4.907,2.261 2.025,0.96 4.296,2.5 10.38,3.4 0.064,0.01 0.113,0.022 0.177,0.032 0.628,0.09 1.308,0.17 2.015,0.244 0.629,0.07 1.285,0.13 1.957,0.188 5.993,0.518 13.43,0.605 17.71,0.213 5.292,-0.486 5.702,-1.688 5.097,-3.27 -0.605,-1.582 -2.225,-3.546 -3.844,-5.508 l -0.263,-0.888 -0.487,-1.635 c 0.255,0.01 0.506,0.026 0.75,0.054 1.084,0.125 2.049,0.441 2.73,0.588 0.683,0.146 1.08,0.126 1.415,-0.011 0.336,-0.136 0.606,-0.387 0.816,-1.414 0.21,-1.027 0.358,-2.83 0.274,-4.811 -0.084,-1.981 -0.398,-4.14 -0.692,-5.377 -0.293,-1.236 -0.568,-1.553 -0.88,-1.69 a 0.666,0.666 0 0 0 -0.266,-0.058 c -0.317,-0.005 -0.854,0.177 -2.198,0.814 -0.88,0.417 -3.736,1.015 -5.588,1.429 0.029,-2.028 0.591,-3.708 0.614,-4.832 0.023,-1.21 0.595,-2.056 -1.506,-2.404 -0.263,-0.042 -0.645,-0.058 -1.121,-0.046 z"
         style="fill:#194d6f;fill-opacity:1;stroke-width:0.748623"
         id="path13" />
      <path
         d="m 40.639,29.477 c 0,0 0.506,0.024 0.75,0.052 1.084,0.125 2.05,0.441 2.73,0.588 0.683,0.146 1.08,0.127 1.414,-0.01 0.336,-0.136 0.607,-0.387 0.817,-1.414 0.21,-1.027 0.357,-2.83 0.273,-4.81 a 33.953,33.953 0 0 0 -0.39,-3.774 c -7.128,-1.038 -17.792,9.506 -5.594,9.368 z"
         style="opacity:1;fill:#d68b0a;fill-opacity:1;stroke-width:1.82272"
         id="path14" />
      <path
         d="m 34.965,10.697 c -2.777,0.067 -8.784,1.001 -13.602,2.068 l -0.054,0.012 a 84.563,84.563 0 0 0 -2.702,0.645 c -0.117,0.03 -0.233,0.064 -0.35,0.095 -0.792,0.214 -1.586,0.448 -2.357,0.733 a 15.31,15.31 0 0 0 -1.136,0.468 c -0.371,0.172 -0.733,0.361 -1.084,0.57 -0.332,0.2 -0.666,0.407 -1,0.622 -0.649,0.418 -1.296,0.868 -1.922,1.342 A 21.678,21.678 0 0 0 8.138,19.56 C 7.884,19.828 7.644,20.1 7.418,20.377 L 7.406,20.388 7.404,20.39 c -0.08,0.098 -0.153,0.197 -0.228,0.295 -0.141,0.184 -0.278,0.37 -0.405,0.557 -0.03,0.045 -0.066,0.088 -0.095,0.133 -1.53,2.35 -2.55,5.109 -3.057,6.383 -0.506,1.275 -0.498,1.06 -0.797,1.117 -0.298,0.057 -0.9,0.387 -1.054,1.281 -0.153,0.895 0.147,2.345 1.2,3.262 1.056,0.916 2.861,1.292 4.907,2.261 2.025,0.96 4.296,2.5 10.38,3.4 0.064,0.01 0.113,0.022 0.177,0.032 0.628,0.09 1.308,0.17 2.015,0.244 0.629,0.07 1.285,0.13 1.957,0.188 5.993,0.519 13.43,0.605 17.71,0.213 5.292,-0.486 5.702,-1.688 5.097,-3.27 -1.834,-3.08 -3.605,-4.708 -4.594,-8.031 0.255,0.01 0.506,0.027 0.75,0.055 1.084,0.125 2.049,0.44 2.73,0.587 0.683,0.146 1.08,0.126 1.415,-0.011 0.336,-0.136 0.606,-0.387 0.816,-1.414 0.21,-1.027 0.358,-2.83 0.274,-4.81 -0.084,-1.982 -0.398,-4.14 -0.692,-5.378 -0.293,-1.236 -0.568,-1.553 -0.88,-1.69 a 0.666,0.666 0 0 0 -0.266,-0.058 c -0.317,-0.005 -0.854,0.178 -2.198,0.815 -0.88,0.417 -2.556,0.74 -4.408,1.154 0.029,-2.028 0.591,-3.708 0.613,-4.832 0.023,-1.21 -0.584,-1.782 -2.685,-2.13 -0.263,-0.042 -0.645,-0.058 -1.121,-0.046 z"
         style="fill:url(#d);fill-opacity:1;stroke-width:0.748623"
         id="path15" />
      <path
         d="m 16.037,38.31 -0.08,0.354 -0.22,0.982 c 0.758,0.161 1.62,0.317 2.54,0.454 0.064,0.01 0.112,0.023 0.176,0.033 0.628,0.09 1.309,0.17 2.016,0.244 0.577,0.064 1.18,0.118 1.795,0.172 l 0.14,-1.006 z"
         style="fill:#d68b0a;stroke-width:1.59863"
         id="path16" />
      <path
         d="m 35.137,10.697 c -0.28,0.088 -0.477,0.147 -0.75,0.233 A 43.622,43.622 0 0 1 4.56,34.313 c 0.948,0.404 2.074,0.78 3.314,1.367 2.025,0.96 4.296,2.5 10.38,3.4 0.064,0.01 0.113,0.021 0.177,0.031 0.628,0.09 1.308,0.17 2.015,0.244 a 102.563,102.563 0 0 0 2.922,0.266 c 5.808,0.449 12.691,0.506 16.744,0.135 5.293,-0.486 5.703,-1.688 5.098,-3.27 -1.834,-3.08 -3.605,-4.707 -4.594,-8.03 0.255,0.01 0.506,0.026 0.75,0.054 0.245,0.028 0.48,0.068 0.711,0.111 0.28,0.053 0.551,0.112 0.805,0.174 0.462,0.113 0.874,0.23 1.215,0.303 0.17,0.036 0.322,0.061 0.46,0.078 0.139,0.016 0.264,0.023 0.378,0.021 0.113,-0.002 0.215,-0.012 0.31,-0.031 0.095,-0.019 0.182,-0.046 0.266,-0.08 0.336,-0.136 0.606,-0.387 0.816,-1.414 0.175,-0.858 0.305,-2.26 0.295,-3.852 a 26.667,26.667 0 0 0 -0.021,-0.959 v -0.002 c -0.021,-0.494 -0.056,-1 -0.102,-1.5 V 21.357 A 35.84,35.84 0 0 0 46.333,19.894 V 19.892 C 46.27,19.422 46.202,18.975 46.13,18.568 v -0.002 a 19.372,19.372 0 0 0 -0.22,-1.082 v -0.002 a 7.802,7.802 0 0 0 -0.218,-0.763 v -0.002 a 2.896,2.896 0 0 0 -0.216,-0.49 1.161,1.161 0 0 0 -0.22,-0.284 0.81,0.81 0 0 0 -0.228,-0.148 0.666,0.666 0 0 0 -0.265,-0.059 1.2,1.2 0 0 0 -0.287,0.035 3.594,3.594 0 0 0 -0.426,0.131 c -0.342,0.125 -0.813,0.33 -1.485,0.649 a 6.247,6.247 0 0 1 -0.83,0.306 c -0.303,0.093 -0.64,0.182 -1.01,0.272 -0.76,0.184 -1.642,0.369 -2.568,0.576 0.029,-2.028 0.591,-3.708 0.613,-4.832 0.023,-1.21 -0.584,-1.782 -2.685,-2.13 a 6.04,6.04 0 0 0 -0.95,-0.046 z"
         style="opacity:0.204082;fill:#8e44ad;fill-opacity:1;stroke-width:2.10722"
         id="path17" />
      <path
         d="M 22.594,13.84 C 16.69,13.652 9.88,17.206 6.77,21.242 l -0.402,0.62 c 0.806,0.23 2.54,0.504 3.154,0.472 0.401,-0.02 1.079,-0.54 1.079,-0.54 h 2.203 l 0.42,0.657 0.656,0.654 v -1.31 l 0.656,-0.656 0.654,-0.657 h 0.657 v -0.654 l 0.656,-0.656 1.31,-0.656 0.657,-0.657 0.843,-0.441 0.467,0.441 1.313,-0.654 -0.467,-0.742 -0.47,0.016 -0.186,-0.372 -0.358,-0.296 1.668,-0.004 0.467,0.742 1.969,0.656 -0.656,-1.31 v -1.313 z m 0.369,25.746 c 0.092,-0.464 0.09,-0.928 0.098,-1.398 l 1.31,-0.655 0.656,-0.656 0.657,-2.623 0.656,-0.656 v -1.31 l -0.469,-0.743 -1.5,0.086 -1.31,-0.654 h -0.657 l -0.656,-1.313 -1.121,-1.098 -0.846,0.442 -1.31,-1.31 h -1.313 l -1.967,-0.657 -0.656,1.313 -1.12,-0.745 -0.847,-0.654 v -0.568 l -0.466,-0.444 -0.76,-0.379 0.572,-1.146 -0.467,-0.742 -1.502,1.398 H 9.291 L 8.863,24.646 v 0.004 c -0.07,0.382 -0.604,0.19 -0.64,0.575 -0.005,0.048 0.466,0.722 0.466,0.722 0,0 0.846,0.301 1.256,0.438 l 1.313,0.656 0.656,0.656 0.654,0.655 h 1.313 v 1.312 l -0.656,0.654 -0.657,1.313 v 0.656 l 0.657,0.654 0.656,0.657 0.654,1.312 0.656,0.654 1.313,0.657 v 2.56 c 0.55,0.105 1.126,0.206 1.752,0.3 0.063,0.008 0.112,0.02 0.176,0.03 a 80.59,80.59 0 0 0 3.785,0.414 l 0.187,0.018 c 0.182,0.016 0.375,0.028 0.559,0.043 0.032,0.003 0.016,0.001 0,0 -0.016,-10e-4 -0.033,-0.003 0,0 z m 9.135,-21.512 -0.512,0.319 -0.469,0.693 0.469,0.742 h 1.11 l -0.048,-0.107 -0.084,-0.905 z m -8.744,21.29 A 55.412,55.412 0 0 0 35.877,29.322 l -1.188,-0.04 -3.082,0.472 -0.49,-0.533 -1.37,-0.715 -0.597,-0.897 -0.187,-0.568 v -2.623 l 0.654,-1.313 1.313,-1.31 v -0.656 l 1.31,-0.657 0.713,-0.236 c 0.108,0.178 0.21,0.36 0.31,0.543 0.008,0.013 0.024,0.022 0.034,0.033 l -0.344,-0.576 c 0.417,-0.215 0.847,-0.404 1.287,-0.566 0.212,-0.081 0.438,-0.149 0.658,-0.223 0.257,-0.087 0.507,-0.18 0.77,-0.26 0.198,-0.059 0.398,-0.109 0.598,-0.164 0.289,-0.08 0.577,-0.163 0.867,-0.236 0.2,-0.05 0.397,-0.092 0.597,-0.139 0.302,-0.072 0.6,-0.145 0.895,-0.21 1.852,-0.415 3.528,-0.738 4.408,-1.155 0.164,-0.078 0.281,-0.129 0.422,-0.193 0.149,-0.376 0.296,-0.753 0.441,-1.135 0.422,-0.163 0.69,-0.231 0.868,-0.229 a 0.665,0.665 0 0 1 0.265,0.059 c 0.313,0.136 0.588,0.453 0.881,1.69 0.294,1.236 0.608,3.395 0.692,5.376 a 25.663,25.663 0 0 1 -0.112,3.682 c -0.016,0.15 -0.03,0.303 -0.049,0.44 l -0.011,0.083 c -0.032,0.22 -0.066,0.428 -0.102,0.606 a 4.827,4.827 0 0 1 -0.168,0.635 2.095,2.095 0 0 1 -0.162,0.35 1.175,1.175 0 0 1 -0.135,0.193 0.829,0.829 0 0 1 -0.14,0.117 1.054,1.054 0 0 1 -0.211,0.119 c -0.335,0.137 -0.732,0.158 -1.414,0.012 -0.682,-0.147 -1.647,-0.463 -2.73,-0.588 -0.245,-0.028 -0.75,-0.055 -0.75,-0.055 0.123,0.415 0.259,0.803 0.405,1.172 v 0.002 c 0.147,0.368 0.305,0.715 0.471,1.049 v 0.002 c 0.334,0.667 0.706,1.277 1.104,1.88 v 0.002 c 0.795,1.207 1.696,2.384 2.613,3.924 0.038,0.1 0.073,0.196 0.101,0.291 v 0.002 c 0.231,0.766 0.148,1.432 -0.732,1.955 -0.22,0.131 -0.489,0.255 -0.816,0.368 a 7.904,7.904 0 0 1 -0.536,0.16 13.67,13.67 0 0 1 -1.351,0.279 26.83,26.83 0 0 1 -1.764,0.215 c -4.066,0.372 -11.331,0.282 -17.15,-0.17 z"
         style="opacity:0.432653;fill:url(#e);fill-opacity:1;stroke-width:0.748623"
         id="path18" />
      <path
         fill="url(#f)"
         fill-rule="evenodd"
         d="m 33.47,21.468 -4.319,6.142 8.583,8.584 c 0.768,-1.693 2.88,-5.88 2.883,-7.74 0,-1.624 -6.523,-5.392 -7.112,-6.907 a 13.828,13.828 0 0 0 -0.035,-0.08 z"
         opacity="0.2"
         style="fill:url(#f);stroke-width:0.748623"
         id="path19" />
      <path
         fill="url(#g)"
         d="m 21.363,12.765 c -0.974,0.216 -1.917,0.435 -2.756,0.656 -0.117,0.03 -0.234,0.066 -0.35,0.097 -1.585,0.427 -3.173,0.932 -4.577,1.771 -0.331,0.198 -0.665,0.405 -0.999,0.62 L 12.68,15.91 c -0.657,0.424 -1.298,0.871 -1.922,1.341 -1.264,0.958 -2.437,2.017 -3.352,3.138 -0.229,0.28 -0.44,0.565 -0.634,0.852 0.806,0.231 1.671,0.382 2.285,0.35 0.401,-0.02 1.078,-0.539 1.078,-0.539 h 2.623 v 0.656 l 0.656,0.656 v -1.31 l 0.656,-0.657 0.655,-0.656 h 0.656 v -0.656 l 0.656,-0.655 1.311,-0.656 0.656,-0.656 1.311,-0.656 v 0.656 l 1.312,-0.656 h -0.656 v -0.655 l -0.656,-0.656 h 2.623 l -0.656,0.656 1.968,0.655 -0.656,-1.31 V 13.84 Z m 23.401,2.971 c -0.317,-0.005 -0.854,0.178 -2.198,0.815 -0.88,0.417 -2.556,0.74 -4.408,1.154 -0.295,0.066 -0.593,0.138 -0.895,0.21 -0.2,0.047 -0.397,0.09 -0.598,0.14 -0.29,0.073 -0.577,0.156 -0.866,0.236 -0.2,0.055 -0.4,0.105 -0.598,0.164 -0.263,0.08 -0.513,0.172 -0.77,0.26 -0.22,0.073 -0.446,0.141 -0.658,0.222 -0.44,0.163 -1.287,0.567 -1.287,0.567 l -0.712,0.237 -1.312,0.656 v 0.656 l -1.311,1.31 -0.656,1.312 v 2.623 l 0.656,1.312 1.311,0.655 0.656,0.656 3.093,-0.515 3.66,0.11 c 0.508,-0.028 1.012,-0.05 1.51,-0.064 0.42,-0.01 0.834,-0.014 1.236,0.003 0.255,0.011 0.506,0.027 0.75,0.055 1.084,0.125 2.048,0.44 2.73,0.587 0.682,0.146 1.08,0.125 1.415,-0.012 0.336,-0.136 0.607,-0.387 0.817,-1.414 0.21,-1.027 0.357,-2.83 0.273,-4.81 -0.084,-1.982 -0.398,-4.14 -0.692,-5.378 -0.293,-1.236 -0.567,-1.552 -0.88,-1.688 A 0.666,0.666 0 0 0 44.764,15.736 Z M 31.118,17.65 v 1.435 h 1.11 l -0.205,-0.423 0.074,-0.588 z m -18.319,0.043 h 0.04 l -0.081,0.08 z m -2.664,5.982 -0.656,0.656 H 8.824 L 8.397,23.905 v 0.003 l -0.175,1.316 1.257,0.418 1.312,0.656 0.656,0.656 0.655,0.656 h 1.312 v 1.311 l -0.656,0.656 -0.656,1.311 v 0.656 l 0.656,0.656 0.656,0.655 0.655,1.312 0.656,0.656 1.312,0.655 v 2.833 l -0.076,0.36 a 42.44,42.44 0 0 0 2.295,0.41 c 0.063,0.008 0.112,0.02 0.176,0.03 1.191,0.17 2.554,0.31 3.972,0.432 l 0.19,-1.442 v -0.656 l 1.311,-0.655 0.656,-0.656 0.656,-2.623 0.655,-0.656 v -1.31 l -1.311,-0.656 h -0.656 l -1.311,-0.655 h -0.656 l -0.656,-1.312 -0.655,-0.656 h -1.312 l -1.311,-1.31 h -1.312 l -1.967,-0.657 -0.656,1.312 -1.31,-0.656 h -0.657 v -1.31 l -0.76,-0.381 -0.551,-0.276 0.656,-1.312 z"
         style="fill:url(#g);stroke-width:0.748623"
         id="path20" />
      <path
         fill="url(#h)"
         d="m 5.981,29.555 4.455,4.455 2.4,-3.563 -3.922,-3.922 z"
         opacity="0.397"
         transform="translate(-0.692,-0.907)"
         id="path21"
         style="fill:url(#h);stroke-width:0.748623" />
      <circle
         cx="6.8060002"
         cy="27.184999"
         r="2.112"
         fill="url(#i)"
         style="fill:#194d6f;fill-opacity:1;stroke-width:0.28414;image-rendering:optimizeSpeed"
         id="circle21" />
      <ellipse
         cx="6.7480001"
         cy="27.212"
         fill="url(#j)"
         rx="1.982"
         ry="1.444"
         style="fill:#eff0f1;fill-opacity:1;stroke-width:0.28414;image-rendering:optimizeSpeed"
         id="ellipse21" />
      <circle
         cx="6.2719998"
         cy="27.212"
         r="0.74299997"
         fill="#232629"
         style="fill:#000000;fill-opacity:1;stroke-width:0.28414;image-rendering:optimizeSpeed"
         id="circle22" />
      <path
         d="m 44.764,15.736 c -0.317,-0.005 -0.854,0.178 -2.198,0.815 -0.11,0.052 -0.233,0.103 -0.367,0.152 l -0.011,0.004 a 8.557,8.557 0 0 1 -0.452,0.15 c -0.927,0.283 -2.202,0.54 -3.578,0.848 -0.295,0.066 -0.592,0.139 -0.894,0.211 -0.2,0.047 -0.399,0.089 -0.6,0.139 -0.29,0.073 -0.576,0.156 -0.865,0.236 -0.2,0.055 -0.4,0.105 -0.598,0.164 -0.263,0.08 -0.512,0.173 -0.77,0.26 -0.22,0.074 -0.446,0.142 -0.658,0.223 -0.44,0.162 -1.287,0.566 -1.287,0.566 l -0.713,0.238 -1.31,0.654 v 0.657 l -1.313,1.31 -0.656,1.313 v 2.623 l 0.656,1.31 1.313,0.657 0.654,0.656 3.094,-0.516 3.66,0.11 a 56.07,56.07 0 0 1 1.51,-0.063 c 0.42,-0.01 0.834,-0.015 1.236,0.002 0.255,0.011 0.506,0.027 0.75,0.055 0.245,0.028 0.48,0.068 0.711,0.111 l 0.027,0.006 c 0.271,0.052 0.533,0.108 0.778,0.168 0.462,0.113 0.874,0.23 1.215,0.303 0.682,0.146 1.079,0.125 1.414,-0.012 0.21,-0.085 0.394,-0.216 0.554,-0.55 v -0.003 c 0.097,-0.202 0.183,-0.476 0.262,-0.861 0.046,-0.226 0.089,-0.503 0.127,-0.797 0.02,-0.16 0.037,-0.342 0.055,-0.52 a 19.883,19.883 0 0 0 0.1,-1.625 26.696,26.696 0 0 0 -0.008,-1.863 v -0.008 a 30.9,30.9 0 0 0 -0.102,-1.5 v -0.002 c -0.046,-0.5 -0.103,-0.992 -0.166,-1.462 v -0.002 a 31.93,31.93 0 0 0 -0.203,-1.325 v -0.002 a 19.368,19.368 0 0 0 -0.22,-1.082 v -0.002 a 7.8,7.8 0 0 0 -0.218,-0.763 v -0.002 a 2.896,2.896 0 0 0 -0.216,-0.49 1.161,1.161 0 0 0 -0.22,-0.284 0.81,0.81 0 0 0 -0.228,-0.148 0.664,0.664 0 0 0 -0.265,-0.059 z m -13.48,1.987 -0.167,0.254 v 1.109 h 1.112 l -0.206,-0.424 0.075,-0.588 -0.815,-0.351 z M 19.206,28.158 a 43.622,43.622 0 0 1 -6.857,3.635 l 0.408,0.408 0.656,0.654 0.654,1.313 0.657,0.654 1.312,0.657 v 2.832 l -0.076,0.36 c 0.703,0.146 1.456,0.284 2.295,0.41 0.063,0.008 0.112,0.018 0.176,0.028 0.277,0.04 0.59,0.073 0.884,0.11 0.367,0.045 0.718,0.091 1.106,0.133 0.009,0 0.016,0.003 0.025,0.003 0.633,0.067 1.288,0.13 1.957,0.188 l 0.19,-1.441 v -0.657 l 1.31,-0.654 0.657,-0.656 0.656,-2.623 0.654,-0.657 v -1.31 l -1.31,-0.656 h -0.657 l -1.31,-0.655 H 21.936 L 21.28,28.922 20.626,28.266 h -1.313 z"
         style="opacity:0.395918;fill:#f39c1f;fill-opacity:1;stroke-width:2.10722"
         id="path22" />
      <path
         d="M 45.121,15.855 A 55.412,55.412 0 0 1 36.697,28.48 l 1.174,0.036 a 56.07,56.07 0 0 1 1.51,-0.063 c 0.42,-0.01 0.834,-0.015 1.236,0.002 0.255,0.011 0.506,0.027 0.75,0.055 0.245,0.028 0.48,0.068 0.711,0.111 l 0.027,0.006 c 0.271,0.052 0.533,0.108 0.778,0.168 0.462,0.113 0.874,0.23 1.215,0.303 0.682,0.146 1.079,0.125 1.414,-0.012 0.21,-0.085 0.394,-0.216 0.554,-0.55 v -0.003 c 0.097,-0.202 0.183,-0.476 0.262,-0.861 0.046,-0.226 0.089,-0.503 0.127,-0.797 0.02,-0.16 0.037,-0.342 0.055,-0.52 a 19.898,19.898 0 0 0 0.1,-1.625 26.647,26.647 0 0 0 -0.008,-1.863 v -0.008 c -0.021,-0.494 -0.056,-1 -0.102,-1.5 v -0.002 a 35.8,35.8 0 0 0 -0.166,-1.462 v -0.002 a 31.97,31.97 0 0 0 -0.203,-1.325 v -0.002 a 19.377,19.377 0 0 0 -0.22,-1.082 v -0.002 a 7.8,7.8 0 0 0 -0.218,-0.763 v -0.002 a 2.896,2.896 0 0 0 -0.216,-0.49 1.161,1.161 0 0 0 -0.22,-0.284 c -0.043,-0.04 -0.09,-0.06 -0.136,-0.088 z"
         style="opacity:0.559184;fill:#f39c1f;fill-opacity:1;stroke-width:1.59863"
         id="path23" />
      <path
         d="m 34.965,10.697 c -2.777,0.067 -8.784,1.002 -13.602,2.069 l -0.054,0.011 c -0.904,0.2 -1.805,0.415 -2.702,0.645 -0.117,0.03 -0.232,0.065 -0.35,0.096 A 27.55,27.55 0 0 0 15.9,14.25 15.31,15.31 0 0 0 14.764,14.719 c -0.371,0.172 -0.733,0.36 -1.084,0.568 -0.332,0.2 -0.666,0.408 -1,0.623 -0.65,0.418 -1.296,0.868 -1.922,1.342 -0.934,0.698 -1.81,1.47 -2.62,2.309 a 15.07,15.07 0 0 0 -0.72,0.816 l -0.012,0.012 -0.002,0.002 c -0.08,0.098 -0.153,0.197 -0.228,0.295 -0.141,0.184 -0.278,0.37 -0.405,0.556 -0.03,0.045 -0.066,0.088 -0.095,0.133 -1.53,2.35 -3.057,6.383 -3.057,6.383 0,0 1.966,-3.622 3.078,-5.362 0.03,-0.045 0.068,-0.088 0.098,-0.132 0.126,-0.187 0.262,-0.375 0.402,-0.559 0.075,-0.098 0.149,-0.197 0.229,-0.295 l 0.002,-0.002 0.011,-0.01 C 7.665,21.121 7.906,20.848 8.16,20.58 a 21.67,21.67 0 0 1 2.62,-2.307 31.006,31.006 0 0 1 1.921,-1.341 39.64,39.64 0 0 1 1,-0.623 c 0.351,-0.21 0.713,-0.399 1.084,-0.57 a 15.17,15.17 0 0 1 1.137,-0.468 c 0.77,-0.285 1.565,-0.52 2.357,-0.734 0.117,-0.031 0.233,-0.064 0.35,-0.094 0.897,-0.23 1.797,-0.444 2.701,-0.644 l 0.055,-0.014 c 4.818,-1.067 10.824,-2 13.601,-2.066 0.476,-0.012 0.858,0.003 1.121,0.045 1.384,0.229 2.24,0.56 2.664,1.101 0.02,-1.204 -0.589,-1.776 -2.685,-2.123 -0.263,-0.042 -0.645,-0.057 -1.121,-0.045 z m 9.799,5.04 c -0.317,-0.006 -0.854,0.177 -2.198,0.814 -0.812,0.385 -2.727,0.783 -4.409,1.154 2.44,0.116 4.305,-0.272 6.628,-0.947 0.092,0 0.183,0.02 0.268,0.056 0.312,0.137 0.586,0.456 0.879,1.692 0.289,1.217 0.595,3.326 0.685,5.281 -0.002,-0.306 -0.002,-0.608 -0.015,-0.926 -0.084,-1.982 -0.398,-4.139 -0.692,-5.377 -0.293,-1.236 -0.569,-1.552 -0.88,-1.69 a 0.666,0.666 0 0 0 -0.266,-0.058 z"
         style="fill:#ffffff;fill-opacity:0.366973;stroke-width:0.748623"
         id="path24" />
    </g>
  </g>
</svg>
