<?xml version="1.0" encoding="UTF-8" standalone="no"?>
<svg
   width="48"
   height="48"
   version="1.1"
   id="svg114"
   sodipodi:docname="log-viewer.svg"
   inkscape:version="1.1.1 (3bf5ae0d25, 2021-09-20)"
   xmlns:inkscape="http://www.inkscape.org/namespaces/inkscape"
   xmlns:sodipodi="http://sodipodi.sourceforge.net/DTD/sodipodi-0.dtd"
   xmlns="http://www.w3.org/2000/svg"
   xmlns:svg="http://www.w3.org/2000/svg">
  <sodipodi:namedview
     id="namedview116"
     pagecolor="#ffffff"
     bordercolor="#666666"
     borderopacity="1.0"
     inkscape:pageshadow="2"
     inkscape:pageopacity="0.0"
     inkscape:pagecheckerboard="0"
     showgrid="false"
     inkscape:zoom="6.5416667"
     inkscape:cx="61.910828"
     inkscape:cy="30.878981"
     inkscape:window-width="1440"
     inkscape:window-height="810"
     inkscape:window-x="236"
     inkscape:window-y="99"
     inkscape:window-maximized="0"
     inkscape:current-layer="svg114" />
  <defs
     id="defs12">
    <linearGradient
       id="a"
       y1="543.8"
       y2="503.8"
       x2="0"
       gradientUnits="userSpaceOnUse"
       gradientTransform="matrix(1 0 0 .9 0 54.38)">
      <stop
         stop-color="#1d1e1e"
         id="stop2" />
      <stop
         offset="1"
         stop-color="#44484c"
         id="stop4" />
    </linearGradient>
    <linearGradient
       id="b"
       y1="44"
       y2="4"
       x2="0"
       gradientUnits="userSpaceOnUse">
      <stop
         stop-color="#c6cdd1"
         id="stop7" />
      <stop
         offset="1"
         stop-color="#e0e5e7"
         id="stop9" />
    </linearGradient>
  </defs>
  <g
     transform="translate(-384.57-499.8)"
     id="g112">
    <path
       stroke-opacity=".55"
       fill="url(#b)"
       stroke-width="2.8"
       d="m4 4v40h40v-40z"
       transform="translate(384.57 499.8)"
       id="path14" />
    <rect
       width="40"
       x="388.57"
       y="542.8"
       fill="#99a1a7"
       height="1"
       id="rect16" />
    <path
       fill="#eff0f1"
       fill-rule="evenodd"
       d="m402.57 514.8v15l12-7.5z"
       id="path18" />
    <rect
       width="40"
       x="388.57"
       y="508.8"
       fill="url(#a)"
       rx="0"
       height="31"
       id="rect20" />
    <g
       transform="translate(-51-7)"
       id="g28">
      <rect
         width="40"
         x="439.57"
         y="510.8"
         fill="#566069"
         height="4"
         id="rect22" />
      <rect
         width="40"
         x="439.57"
         y="514.8"
         fill="#3daee9"
         height="1"
         id="rect24" />
      <rect
         width="2"
         x="476.57"
         y="511.8"
         fill="#eff0f1"
         rx="1"
         height="2"
         id="rect26" />
    </g>
    <g
       stroke-linejoin="round"
       stroke-linecap="round"
       color="#000000"
       stroke-width="3"
       id="g38">
      <circle
         fill="#eff0f1"
         cx="395.07"
         cy="533.3"
         r="3.5"
         id="circle30" />
      <circle
         fill="#3daefd"
         cx="395.07"
         cy="533.3"
         r="2.5"
         id="circle32" />
      <circle
         fill="#eff0f1"
         cx="395.07"
         cy="524.3"
         r="3.5"
         id="circle34" />
      <circle
         fill="#3daefd"
         cx="395.07"
         cy="524.3"
         r="2.5"
         id="circle36" />
    </g>
    <g
       fill="#da4453"
       id="g44">
      <rect
         width="2"
         x="399.57"
         y="513.8"
         height="1"
         id="rect40" />
      <rect
         width="3"
         x="402.57"
         y="513.8"
         height="1"
         id="rect42" />
    </g>
    <g
       fill="#95a5a6"
       id="g52">
      <rect
         width="3"
         x="408.57"
         y="513.8"
         height="1"
         id="rect46" />
      <rect
         width="6"
         x="413.57"
         y="513.8"
         height="1"
         id="rect48" />
      <rect
         width="4"
         x="420.57"
         y="513.8"
         height="1"
         id="rect50" />
    </g>
    <g
       fill="#bdc3c7"
       id="g58">
      <rect
         width="4"
         x="399.57"
         y="515.8"
         height="1"
         id="rect54" />
      <rect
         width="2"
         x="404.57"
         y="515.8"
         height="1"
         id="rect56" />
    </g>
    <rect
       width="8"
       x="408.57"
       y="515.8"
       fill="#95a5a6"
       height="1"
       id="rect60" />
    <g
       fill="#3daefd"
       id="g66">
      <rect
         width="2"
         x="399.57"
         y="522.8"
         height="1"
         id="rect62" />
      <rect
         width="3"
         x="402.57"
         y="522.8"
         height="1"
         id="rect64" />
    </g>
    <g
       fill="#95a5a6"
       id="g74">
      <rect
         width="4"
         x="408.57"
         y="522.8"
         height="1"
         id="rect68" />
      <rect
         width="4"
         x="414.57"
         y="522.8"
         height="1"
         id="rect70" />
      <rect
         width="5"
         x="419.57"
         y="522.8"
         height="1"
         id="rect72" />
    </g>
    <rect
       width="3"
       x="399.57"
       y="524.8"
       fill="#bdc3c7"
       height="1"
       id="rect76" />
    <g
       fill="#95a5a6"
       id="g90">
      <rect
         width="3"
         x="408.57"
         y="524.8"
         height="1"
         id="rect78" />
      <rect
         width="1"
         x="412.57"
         y="524.8"
         height="1"
         id="rect80" />
      <rect
         width="5"
         x="414.57"
         y="524.8"
         height="1"
         id="rect82" />
      <g
         transform="scale(-1 1)"
         id="g88">
        <rect
           width="2"
           x="-419.57"
           y="533.8"
           height="1"
           id="rect84" />
        <rect
           width="8"
           x="-416.57"
           y="533.8"
           height="1"
           id="rect86" />
      </g>
    </g>
    <g
       transform="scale(-1 1)"
       id="g104">
      <rect
         width="7"
         x="-406.57"
         y="533.8"
         fill="#bdc3c7"
         height="1"
         id="rect92" />
      <g
         fill="#95a5a6"
         id="g100">
        <rect
           width="2"
           x="-424.57"
           y="531.8"
           height="1"
           id="rect94" />
        <rect
           width="3"
           x="-421.57"
           y="531.8"
           height="1"
           id="rect96" />
        <rect
           width="9"
           x="-417.57"
           y="531.8"
           height="1"
           id="rect98" />
      </g>
      <rect
         width="5"
         x="-404.57"
         y="531.8"
         fill="#3daefd"
         height="1"
         id="rect102" />
    </g>
    <g
       fill-rule="evenodd"
       id="g110">
      <path
         fill="#eff0f1"
         color-rendering="auto"
         shape-rendering="auto"
         color-interpolation-filters="linearRGB"
         image-rendering="auto"
         text-rendering="auto"
         color-interpolation="sRGB"
         color="#000000"
         stroke-width="2"
         d="m395.07 511.72l-3.501 1.467c0 0 .416 1.902.867 3 .225.551.5 1.121.889 1.617.389.496.965.99 1.745.99.78 0 1.354-.494 1.743-.99.389-.496.664-1.066.889-1.617.451-1.102.869-3 .869-3z"
         id="path106" />
      <path
         fill="#da4453"
         d="m392.57 513.8l2.5-1 2.5 1c0 0-.928 4-2.5 4-1.572 0-2.5-4-2.5-4"
         id="path108" />
    </g>
  </g>
</svg>
