<?xml version="1.0" encoding="UTF-8" standalone="no"?>
<svg
   width="48"
   height="48"
   version="1.1"
   viewBox="0 0 12.7 12.7"
   xml:space="preserve"
   id="svg31"
   sodipodi:docname="marknote.svg"
   inkscape:version="1.3.2 (091e20ef0f, 2023-11-25)"
   xmlns:inkscape="http://www.inkscape.org/namespaces/inkscape"
   xmlns:sodipodi="http://sodipodi.sourceforge.net/DTD/sodipodi-0.dtd"
   xmlns="http://www.w3.org/2000/svg"
   xmlns:svg="http://www.w3.org/2000/svg"><sodipodi:namedview
   id="namedview31"
   pagecolor="#ffffff"
   bordercolor="#000000"
   borderopacity="0.25"
   inkscape:showpageshadow="2"
   inkscape:pageopacity="0.0"
   inkscape:pagecheckerboard="0"
   inkscape:deskcolor="#d1d1d1"
   inkscape:zoom="5.9479167"
   inkscape:cx="-3.1103327"
   inkscape:cy="40.938704"
   inkscape:window-width="1440"
   inkscape:window-height="810"
   inkscape:window-x="190"
   inkscape:window-y="64"
   inkscape:window-maximized="0"
   inkscape:current-layer="svg31" />
  <defs
   id="defs6"><linearGradient
     id="c"
     x1="3.2"
     x2="18"
     y2="24"
     gradientTransform="matrix(.47673 0 0 .4648 1.058 1.058)"
     gradientUnits="userSpaceOnUse">
      <stop
   stop-color="#1abc9c"
   offset="0"
   id="stop1" />
      <stop
   stop-color="#16a085"
   offset="1"
   id="stop2" />
    </linearGradient><radialGradient
     id="b"
     cx="-12.915"
     cy="3.5248"
     r="11.947"
     gradientTransform="matrix(.36847 -.00080263 -.0016564 .093371 2.8149 11.581)"
     gradientUnits="userSpaceOnUse"><stop
       offset="0"
       id="stop3" /><stop
       stop-opacity=".88235"
       offset=".39103"
       id="stop4" /><stop
       stop-opacity=".31013"
       offset=".79634"
       id="stop5" /><stop
       stop-opacity="0"
       offset="1"
       id="stop6" /></radialGradient></defs>
  <path
   d="m25.665-2.778-.265.132v7.938l.53 1.323.528-1.323v-7.938l-.264-.132h-.53z"
   fill="#16a085"
   id="path6" />
  <path
   d="M25.4-2.646v7.938l.265.132v-7.938z"
   fill-opacity=".2"
   id="path7" />
  <path
   d="m26.458-2.646-.264.132v7.938l.264-.132z"
   fill="#fff"
   fill-opacity=".2"
   id="path8" />
  <path
   d="M25.665 5.424h.529l-.265 1.19z"
   fill-opacity=".2"
   id="path9" />
  <path
   d="m25.4 5.292.265.132.264 1.19z"
   fill-opacity=".4"
   id="path10" />
  <path
   d="m25.665-2.778-.265.132.265.132h.529l.264-.132-.264-.132Z"
   fill-opacity=".2"
   id="path11" />
  <path
   d="M25.4 4.762v.265l.265.132h.529l.264-.132v-.265l-.264.133h-.53zm0-7.011v.265l.265.132h.529l.264-.132v-.265l-.264.132h-.53zm0 .529v.265l.265.132h.529l.264-.132v-.265l-.264.132h-.53z"
   fill="#beddf0"
   fill-opacity=".266"
   id="path12" />
  <path
   d="m26.246 5.821-.164.107h-.305l-.164-.105.316.792z"
   fill-opacity=".266"
   id="path13" />
  <rect
   x="1.058"
   y="1.058"
   width="10.583"
   height="10.583"
   rx="1.323"
   ry="1.323"
   fill="url(#c)"
   id="rect13" />
  <path
   d="M3.175 3.175v8.467h.265V3.175h-.265z"
   fill-opacity=".2"
   opacity=".441"
   id="path14" />
  <path
   d="M1.058 3.175v7.144c0 .733.59 1.323 1.323 1.323h.794V3.175H1.058z"
   fill-opacity=".3"
   id="path15" />
  <path
   d="M11.641 6.35v3.704a1.32 1.32 0 0 1-1.323 1.323H2.381a1.32 1.32 0 0 1-1.323-1.323v.265a1.32 1.32 0 0 0 1.323 1.323h7.938a1.32 1.32 0 0 0 1.323-1.323V6.35z"
   opacity=".2"
   id="path16" />
  <path
   d="M1.058 3.175v.265h10.584v-.265H1.058z"
   fill-opacity=".2"
   opacity=".69"
   id="path17" />
  <path
   d="M11.642 2.381a1.32 1.32 0 0 0-1.323-1.323H2.38a1.32 1.32 0 0 0-1.323 1.323v.794h10.584Z"
   fill="#fff"
   fill-opacity=".4"
   id="path18" />
  <path
   d="M2.38 1.058A1.32 1.32 0 0 0 1.058 2.38v.265c0-.733.59-1.323 1.323-1.323h7.937c.733 0 1.323.59 1.323 1.323V6.35h.001V2.381a1.32 1.32 0 0 0-1.323-1.323H2.38z"
   fill="#fff"
   opacity=".3"
   id="path19" />
  <path
   d="M3.969 8.202h2.116c.53 0 .794-.264 1.323-.264.53 0 .874.264 1.323.264h2.117M3.969 5.027h.794c.529 0 .793-.265 1.322-.265.53 0 .874.265 1.323.265h3.44M3.969 6.615h3.44c.529 0 .793-.265 1.322-.265.53 0 .873.265 1.323.265h.794"
   fill="none"
   stroke="#fff"
   stroke-width=".529"
   id="path20" />
  <path
   d="M3.969 9.525v.53h3.775l.194-.53Z"
   fill="#fff"
   style="-inkscape-stroke:none"
   id="path21" />
  <g
   opacity=".3"
   id="g23">
    <path
   d="M3.897 8.467h2.117c.53 0 .794-.265 1.323-.265.53 0 .873.265 1.323.265h2.117m-6.88-3.175h.794c.53 0 .794-.265 1.323-.265.53 0 .873.265 1.323.265h3.44M3.897 6.88h3.44c.53 0 .794-.265 1.323-.265.53 0 .873.264 1.323.264h.794"
   fill="none"
   opacity="1"
   stroke="#fff"
   stroke-width=".529"
   id="path22" />
    <path
   transform="translate(-.071 .265)"
   d="M3.969 9.525v.53h3.775l.265-.53Z"
   fill="#fff"
   style="-inkscape-stroke:none"
   id="path23" />
  </g><rect
   transform="matrix(.49696 -.86777 .89227 .4515 0 0)"
   x="-9.0566"
   y="10.215"
   width="11.444"
   height="2.8437"
   fill="url(#b)"
   opacity=".43346"
   stroke-width=".1601"
   id="rect23" />
  <path
   d="m11.156 1.592-.295.016-3.15 7.286-.038 1.425 1.01-1.005 3.15-7.286-.191-.226Z"
   fill="#bdc3c7"
   id="path24" />
  <path
   d="M10.86 1.608 7.713 8.894l.19.227 3.149-7.286Z"
   fill-opacity=".2"
   id="path25" />
  <path
   d="m11.832 2.028-.295.016-3.149 7.287.295-.017Z"
   fill="#fff"
   fill-opacity=".2"
   id="path26" />
  <path
   d="m7.902 9.12.486.21-.715.989Z"
   fill-opacity=".2"
   id="path27" />
  <path
   d="m7.712 8.894.19.227-.23 1.198Z"
   fill-opacity=".4"
   id="path28" />
  <path
   d="m11.156 1.592-.295.016.19.227.486.21.295-.017-.19-.226z"
   fill-opacity=".2"
   id="path29" />
  <path
   d="m7.922 8.409-.105.243.19.226.486.21.295-.017.105-.242-.295.016-.486-.21Zm2.781-6.437-.105.243.19.227.486.21.296-.017.105-.243-.296.017-.485-.21zm-.21.486-.105.243.19.227.486.21.296-.017.105-.243-.296.017-.485-.21z"
   fill="#fff"
   fill-opacity=".4"
   id="path30" />
  <path
   d="m8.279 9.716-.193.033-.28-.121-.11-.161-.023.852Z"
   fill-opacity=".266"
   id="path31" />
</svg>
